<svg xmlns="http://www.w3.org/2000/svg" width="16" height="16" fill="none" viewBox="0 0 16 16"><path stroke="#C6CAD0" stroke-linecap="round" stroke-linejoin="round" stroke-width="1.2" d="M4 2V10"/><path stroke="#C6CAD0" stroke-linecap="round" stroke-linejoin="round" stroke-width="1.2" d="M10 4C8.4087 4 6.88258 4.63214 5.75736 5.75736C4.63214 6.88258 4 8.4087 4 10"/><path stroke="#C6CAD0" stroke-linecap="round" stroke-linejoin="round" stroke-width="1.2" d="M12 10V14"/><path stroke="#C6CAD0" stroke-linecap="round" stroke-linejoin="round" stroke-width="1.2" d="M14 12H10"/><path stroke="#C6CAD0" stroke-width="1.2" d="M4 13C4.82843 13 5.5 12.3284 5.5 11.5C5.5 10.6716 4.82843 10 4 10C3.17157 10 2.5 10.6716 2.5 11.5C2.5 12.3284 3.17157 13 4 13Z"/><path stroke="#C6CAD0" stroke-width="1.2" d="M11.5 5.5C12.3284 5.5 13 4.8284 13 4C13 3.1716 12.3284 2.5 11.5 2.5C10.6716 2.5 10 3.1716 10 4C10 4.8284 10.6716 5.5 11.5 5.5Z"/></svg>